<?xml version="1.0" standalone="no"?>
<!DOCTYPE svg PUBLIC "-//W3C//DTD SVG 20010904//EN"
 "http://www.w3.org/TR/2001/REC-SVG-20010904/DTD/svg10.dtd">
<svg version="1.0" xmlns="http://www.w3.org/2000/svg"
 width="256.000000pt" height="160.000000pt" viewBox="0 0 256.000000 160.000000"
 preserveAspectRatio="xMidYMid meet">

<g transform="translate(0.000000,160.000000) scale(0.100000,-0.100000)"
fill="#000000" stroke="none">
<path d="M1058 1270 c2 -45 8 -70 15 -70 8 0 11 18 9 55 -3 34 1 61 8 70 10
13 8 15 -11 15 -23 0 -24 -2 -21 -70z"/>
<path d="M1167 1323 c-2 -10 -14 -42 -26 -70 -11 -29 -16 -53 -11 -53 6 0 10
9 10 20 0 16 7 20 31 20 22 0 32 -5 36 -20 3 -11 12 -20 19 -20 11 0 8 15 -11
66 -14 37 -25 68 -25 70 0 12 -18 1 -23 -13z m22 -43 c9 -28 8 -30 -14 -30
-22 0 -23 2 -14 30 6 17 12 30 14 30 2 0 8 -13 14 -30z"/>
<path d="M1247 1333 c-4 -3 -7 -13 -7 -21 0 -13 3 -13 18 1 10 10 22 17 25 17
4 0 7 -29 7 -65 0 -45 4 -65 13 -65 8 0 11 16 9 56 -4 63 7 84 32 59 15 -15
16 -15 16 4 0 19 -6 21 -53 21 -30 0 -57 -3 -60 -7z"/>
<path d="M1388 1270 c5 -91 27 -97 27 -8 0 60 1 63 25 63 33 0 40 -32 9 -43
l-23 -9 22 -5 c31 -9 40 -38 16 -55 -18 -14 -18 -14 6 -11 31 4 38 33 14 59
-10 11 -12 19 -6 19 20 0 13 39 -7 50 -11 5 -35 10 -53 10 l-33 0 3 -70z"/>
<path d="M427 130 c5 -20 14 -20 853 -20 764 0 848 2 854 16 3 9 6 18 6 20 0
2 -387 4 -859 4 -854 0 -859 0 -854 -20z"/>
</g>
</svg>
