<?xml version="1.0" standalone="no"?>
<!DOCTYPE svg PUBLIC "-//W3C//DTD SVG 20010904//EN"
 "http://www.w3.org/TR/2001/REC-SVG-20010904/DTD/svg10.dtd">
<svg version="1.0" xmlns="http://www.w3.org/2000/svg"
 width="128.000000pt" height="128.000000pt" viewBox="0 0 128.000000 128.000000"
 preserveAspectRatio="xMidYMid meet">

<g transform="translate(0.000000,128.000000) scale(0.100000,-0.100000)"
fill="#000000" stroke="none">
<path d="M156 1245 c-47 -16 -91 -57 -117 -108 -19 -36 -19 -59 -17 -495 l3
-458 28 -42 c15 -23 46 -54 69 -69 l42 -28 460 -3 c516 -3 517 -3 577 65 60
69 59 61 59 548 0 422 -1 448 -19 484 -26 50 -81 97 -128 110 -61 17 -908 14
-957 -4z m719 -55 c-38 -4 -142 -8 -230 -8 -88 0 -191 4 -230 8 -42 4 50 7
230 7 180 0 272 -3 230 -7z m-494 -123 c-10 -9 -11 -8 -5 6 3 10 9 15 12 12 3
-3 0 -11 -7 -18z m151 -43 c-6 -12 -9 -7 -9 16 0 23 3 28 9 16 5 -9 5 -23 0
-32z m115 15 c0 -21 -3 -26 -9 -16 -4 9 -5 22 -2 31 9 23 11 20 11 -15z m-406
-16 c-12 -20 -14 -14 -5 12 4 9 9 14 11 11 3 -2 0 -13 -6 -23z m516 -4 c0 -21
-3 -26 -9 -16 -4 9 -5 22 -2 31 9 23 11 20 11 -15z m263 -4 c0 -5 -5 -3 -10 5
-5 8 -10 20 -10 25 0 6 5 3 10 -5 5 -8 10 -19 10 -25z m21 8 c-12 -20 -14 -14
-5 12 4 9 9 14 11 11 3 -2 0 -13 -6 -23z m-651 -18 c7 -9 8 -15 2 -15 -5 0
-12 7 -16 15 -3 8 -4 15 -2 15 2 0 9 -7 16 -15z m114 0 c-4 -8 -11 -15 -16
-15 -6 0 -5 6 2 15 7 8 14 15 16 15 2 0 1 -7 -2 -15z m290 0 c-4 -8 -11 -15
-16 -15 -6 0 -5 6 2 15 7 8 14 15 16 15 2 0 1 -7 -2 -15z m-495 -34 c-6 -2
-18 4 -27 13 -15 15 -15 15 10 4 15 -7 23 -15 17 -17z m44 22 c-7 -2 -19 -2
-25 0 -7 3 -2 5 12 5 14 0 19 -2 13 -5z m212 0 c-11 -3 -23 -10 -27 -17 -5 -7
-8 -7 -8 0 0 16 11 24 34 23 20 -1 20 -1 1 -6z m114 -20 c2 -2 -3 -3 -11 -3
-9 0 -19 7 -22 16 -6 15 -4 15 11 3 10 -7 20 -15 22 -16z m44 20 c-7 -2 -21
-2 -30 0 -10 3 -4 5 12 5 17 0 24 -2 18 -5z m182 -3 c13 11 14 10 9 -4 -3 -9
-14 -16 -24 -16 -10 0 -21 7 -24 16 -5 14 -4 15 9 4 12 -10 18 -10 30 0z
m-497 -43 c-16 -6 -18 -10 -9 -21 7 -9 8 -17 2 -20 -5 -3 -7 -15 -4 -25 3 -10
1 -21 -4 -24 -5 -3 -8 12 -6 34 2 31 0 39 -15 40 -15 1 -15 2 1 6 12 3 17 11
14 22 -4 15 -1 16 19 7 23 -11 23 -11 2 -19z m55 26 c-7 -2 -19 -2 -25 0 -7 3
-2 5 12 5 14 0 19 -2 13 -5z m144 1 c-3 -3 -12 -4 -19 -1 -8 3 -5 6 6 6 11 1
17 -2 13 -5z m166 -6 c12 -7 24 -16 27 -19 3 -3 12 -9 20 -12 13 -5 13 -6 -1
-6 -23 -1 -22 -240 1 -242 11 -1 10 -3 -2 -6 -22 -5 -24 -33 -3 -33 8 0 15 5
15 10 0 6 9 10 20 10 17 0 20 6 17 39 -2 22 1 37 5 35 5 -3 8 -15 6 -26 -2
-12 3 -23 10 -25 11 -4 18 54 13 115 -1 12 2 22 6 22 9 0 8 -268 -1 -277 -3
-4 -6 6 -6 20 0 29 -9 34 -29 14 -10 -10 -11 -9 -6 4 9 23 -15 36 -29 17 -11
-15 -36 -13 -47 5 -10 15 -30 -3 -25 -21 3 -10 1 -24 -4 -32 -8 -12 -10 -10
-8 10 2 14 -2 25 -9 25 -7 0 -18 6 -24 13 -19 18 -32 15 -26 -7 2 -10 1 -25
-4 -32 -6 -10 -9 -8 -9 9 0 15 -5 22 -12 19 -7 -2 -12 -15 -10 -27 1 -13 -1
-20 -5 -17 -4 4 -7 20 -8 34 0 15 -6 28 -13 31 -9 3 -13 -3 -12 -14 4 -30 1
-44 -9 -44 -5 0 -7 10 -4 21 4 16 2 20 -8 17 -8 -3 -13 -13 -13 -22 2 -13 -1
-14 -13 -5 -8 8 -10 15 -4 18 6 4 6 12 2 20 -12 18 -33 4 -27 -17 3 -10 1 -24
-4 -32 -8 -12 -10 -10 -8 9 2 13 -3 26 -9 28 -8 3 -13 -4 -13 -19 0 -17 -3
-19 -9 -9 -5 7 -6 22 -4 32 3 10 3 19 0 19 -12 0 -61 -30 -69 -42 -5 -9 -7 -5
-6 11 2 13 -3 26 -9 28 -8 3 -13 -6 -14 -24 -1 -17 -3 -21 -6 -10 -5 20 -14
22 -32 5 -10 -11 -11 -10 -6 4 5 13 0 21 -16 27 l-24 10 23 0 c12 1 22 -3 22
-9 0 -5 7 -10 15 -10 8 0 15 5 15 10 0 6 9 10 20 10 11 0 20 -4 20 -10 0 -5 9
-10 20 -10 11 0 20 5 20 10 0 6 9 10 20 10 11 0 20 -4 20 -10 0 -5 7 -10 15
-10 21 0 19 19 -2 27 -10 4 -21 11 -24 16 -4 5 -15 4 -26 -4 -23 -14 -53 -6
-52 13 0 10 2 10 6 1 6 -15 43 -17 43 -3 0 6 7 10 14 10 12 0 14 13 13 61 -2
33 1 63 5 65 5 3 5 10 2 16 -9 14 -8 103 0 117 4 6 -2 15 -16 20 -23 10 -23
10 -1 10 12 1 23 -5 26 -11 3 -10 7 -10 20 0 9 8 24 12 34 9 14 -4 13 -5 -4
-6 -13 0 -23 -5 -23 -11 0 -5 -6 -10 -13 -10 -10 0 -13 -32 -13 -140 -1 -113
2 -140 13 -140 9 0 12 7 9 18 -3 9 -1 24 5 32 8 12 9 10 4 -7 -4 -16 -2 -23 8
-23 21 0 28 12 16 26 -7 8 -7 14 1 19 8 5 8 10 0 20 -8 9 -8 15 0 20 14 8 3
25 -16 25 -10 0 -13 -6 -10 -17 3 -10 2 -23 -2 -30 -4 -7 -7 30 -7 82 0 51 2
96 5 98 3 3 5 -13 5 -36 0 -31 4 -42 15 -42 10 0 14 8 12 24 -1 14 1 22 4 18
4 -3 8 -23 9 -44 2 -21 1 -32 -2 -25 -6 14 -43 16 -43 2 0 -6 11 -15 24 -20
22 -8 24 -14 21 -55 -4 -35 -1 -45 10 -45 11 0 14 10 11 43 -2 23 1 48 6 55 7
8 7 12 0 12 -7 0 -9 17 -7 45 4 33 1 45 -9 45 -7 0 -19 7 -26 15 -9 10 -9 15
-1 15 6 0 11 -4 11 -10 0 -5 7 -10 15 -10 8 0 15 5 15 10 0 6 3 10 8 10 4 0 7
-27 7 -60 0 -35 4 -59 10 -57 6 1 10 28 10 59 0 31 2 54 5 51 3 -2 5 -52 5
-111 0 -76 4 -107 13 -110 9 -3 11 8 8 43 -4 40 -1 47 17 55 15 5 27 3 39 -7
20 -18 27 -8 23 38 -2 20 0 41 4 48 4 6 7 -36 6 -94 -1 -88 1 -105 14 -103 10
2 15 17 15 51 1 27 -3 51 -7 54 -4 3 -2 11 4 20 10 11 10 16 0 23 -8 4 -9 10
-3 14 10 6 9 62 -1 73 -4 3 -2 12 5 20 9 11 7 15 -10 20 -12 3 -22 9 -22 13 0
5 -8 11 -17 13 -10 3 -12 5 -5 6 7 0 22 -5 35 -11z m54 6 c-3 -3 -12 -4 -19
-1 -8 3 -5 6 6 6 11 1 17 -2 13 -5z m146 -1 c-7 -2 -19 -2 -25 0 -7 3 -2 5 12
5 14 0 19 -2 13 -5z m-766 -19 c-3 -3 -12 -4 -19 -1 -8 3 -5 6 6 6 11 1 17 -2
13 -5z m103 -17 c10 -4 8 -6 -6 -6 -12 -1 -25 6 -28 15 -5 13 -3 14 6 7 7 -6
20 -13 28 -16z m43 16 c-7 -2 -19 -2 -25 0 -7 3 -2 5 12 5 14 0 19 -2 13 -5z
m306 -5 c11 -10 14 -10 18 0 3 6 17 11 31 11 23 -1 23 -2 5 -6 -19 -4 -21 -11
-21 -66 0 -82 -1 -87 -11 -87 -5 0 -7 29 -5 65 3 52 0 65 -11 65 -8 0 -15 5
-15 10 0 6 -7 10 -15 10 -8 0 -15 -4 -15 -10 0 -5 -10 -9 -22 -9 -17 1 -19 2
-5 6 9 2 17 9 17 14 0 13 34 11 49 -3z m219 0 c8 -8 15 -8 26 1 9 7 21 11 28
8 9 -4 7 -6 -4 -6 -12 -1 -16 -10 -16 -31 1 -17 -3 -34 -7 -38 -4 -4 -5 4 -2
17 4 17 1 24 -14 28 -10 3 -19 9 -19 13 0 5 -10 11 -22 13 -21 4 -21 4 -2 6
11 0 25 -4 32 -11z m135 5 c-7 -2 -19 -2 -25 0 -7 3 -2 5 12 5 14 0 19 -2 13
-5z m70 0 c-7 -2 -19 -2 -25 0 -7 3 -2 5 12 5 14 0 19 -2 13 -5z m-836 -19
c-3 -3 -12 -4 -19 -1 -8 3 -5 6 6 6 11 1 17 -2 13 -5z m216 -1 c-7 -2 -19 -2
-25 0 -7 3 -2 5 12 5 14 0 19 -2 13 -5z m294 1 c-3 -3 -12 -4 -19 -1 -8 3 -5
6 6 6 11 1 17 -2 13 -5z m216 -1 c-7 -2 -19 -2 -25 0 -7 3 -2 5 12 5 14 0 19
-2 13 -5z m-685 -38 c-3 -3 -9 2 -12 12 -6 14 -5 15 5 6 7 -7 10 -15 7 -18z
m473 2 c-10 -9 -11 -8 -5 6 3 10 9 15 12 12 3 -3 0 -11 -7 -18z m119 -2 c0 -8
-3 -16 -7 -18 -5 -3 -8 5 -8 18 0 13 3 21 8 18 4 -2 7 -10 7 -18z m-417 -2
c-7 -2 -19 -2 -25 0 -7 3 -2 5 12 5 14 0 19 -2 13 -5z m-29 -55 c-3 -10 3 -21
13 -27 17 -10 17 -10 1 -11 -20 0 -24 -15 -6 -26 6 -4 17 1 25 11 14 20 17 16
7 -9 -3 -9 -15 -16 -25 -16 -21 0 -25 -15 -9 -25 6 -4 18 -1 26 6 12 10 13 9
8 -5 -6 -16 -43 -23 -45 -8 -6 35 -3 149 3 139 4 -6 5 -20 2 -29z m41 23 c-3
-6 -11 -11 -16 -11 -5 0 -4 6 3 14 14 16 24 13 13 -3z m264 -15 c-3 -3 -11 5
-18 17 -13 21 -12 21 5 5 10 -10 16 -20 13 -22z m286 -42 c-1 -29 -5 -57 -9
-61 -5 -5 -5 2 -2 15 5 14 3 22 -5 22 -8 0 -8 4 -1 13 5 6 8 30 7 52 -2 21 0
33 4 26 5 -7 7 -37 6 -67z m31 6 c0 -38 -3 -65 -6 -59 -8 12 -5 129 3 129 1 0
3 -31 3 -70z m-149 38 c-3 -8 -6 -5 -6 6 -1 11 2 17 5 13 3 -3 4 -12 1 -19z
m-652 -31 c2 -19 0 -39 -4 -45 -4 -7 -7 11 -7 38 0 55 7 59 11 7z m112 14 c0
-22 -3 -26 -12 -18 -9 9 -9 16 -1 29 6 10 11 18 12 18 0 0 1 -13 1 -29z m29
-7 c-4 -9 -2 -22 4 -29 6 -7 7 -15 3 -18 -9 -6 -9 -89 0 -104 9 -14 -18 -36
-35 -30 -9 4 -7 6 4 6 14 1 16 13 14 84 -2 79 1 107 11 107 3 0 2 -7 -1 -16z
m344 -16 c0 -5 -7 -3 -15 6 -8 8 -15 18 -15 22 0 3 7 1 15 -6 8 -7 15 -17 15
-22z m205 -9 c-4 -5 -1 -16 5 -24 9 -11 9 -15 1 -15 -12 0 -12 0 -16 49 -2 26
-1 31 7 18 5 -10 6 -22 3 -28z m-622 16 c-3 -9 -8 -14 -10 -11 -3 3 -2 9 2 15
9 16 15 13 8 -4z m515 1 c-7 -8 -15 -12 -17 -11 -5 6 10 25 20 25 5 0 4 -6 -3
-14z m40 -11 c-3 -3 -9 2 -12 12 -6 14 -5 15 5 6 7 -7 10 -15 7 -18z m-590
-40 c-3 -3 -9 2 -12 12 -6 14 -5 15 5 6 7 -7 10 -15 7 -18z m78 7 c1 -7 0 -8
-3 -2 -7 14 -43 13 -43 -2 0 -6 -3 -9 -6 -5 -3 3 -3 11 1 17 9 15 48 9 51 -8z
m510 0 c1 -7 0 -8 -3 -2 -7 14 -43 13 -43 -2 0 -6 -3 -9 -6 -5 -3 3 -3 11 1
17 9 15 48 9 51 -8z m-623 -37 c-3 -9 -8 -14 -10 -11 -3 3 -2 9 2 15 9 16 15
13 8 -4z m34 -11 c-3 -19 1 -28 17 -34 16 -7 17 -9 4 -9 -27 -1 -31 -20 -6
-30 l23 -10 -22 0 c-13 -1 -23 2 -24 7 -5 44 -2 102 5 102 4 0 6 -12 3 -26z
m36 11 c-3 -9 -8 -14 -10 -11 -3 3 -2 9 2 15 9 16 15 13 8 -4z m45 -10 c-3 -3
-9 2 -12 12 -6 14 -5 15 5 6 7 -7 10 -15 7 -18z m470 11 c-7 -8 -15 -12 -17
-11 -5 6 10 25 20 25 5 0 4 -6 -3 -14z m112 -1 c7 -9 8 -15 2 -15 -5 0 -12 7
-16 15 -3 8 -4 15 -2 15 2 0 9 -7 16 -15z m-487 -52 c-7 -2 -19 -2 -25 0 -7 3
-2 5 12 5 14 0 19 -2 13 -5z m510 0 c-7 -2 -19 -2 -25 0 -7 3 -2 5 12 5 14 0
19 -2 13 -5z m-620 -20 c-7 -2 -19 -2 -25 0 -7 3 -2 5 12 5 14 0 19 -2 13 -5z
m671 -9 c5 -14 4 -15 -9 -4 -17 14 -19 20 -6 20 5 0 12 -7 15 -16z m46 12 c0
-2 -7 -9 -15 -16 -13 -11 -14 -10 -9 4 5 14 24 23 24 12z m-827 -23 c-7 -2
-19 -2 -25 0 -7 3 -2 5 12 5 14 0 19 -2 13 -5z m730 0 c-7 -2 -19 -2 -25 0 -7
3 -2 5 12 5 14 0 19 -2 13 -5z m144 1 c-3 -3 -12 -4 -19 -1 -8 3 -5 6 6 6 11
1 17 -2 13 -5z m-860 -44 c0 -23 -3 -26 -11 -16 -6 8 -18 16 -26 19 -10 4 -7
6 8 6 12 1 22 6 22 11 0 6 2 10 3 10 2 0 4 -13 4 -30z m53 8 c10 -3 8 -6 -7
-10 -15 -4 -23 0 -26 14 -4 14 -2 16 6 10 7 -5 19 -11 27 -14z m651 2 c10 0
19 5 19 10 0 16 37 11 44 -6 3 -9 1 -23 -4 -32 -9 -14 -10 -13 -5 5 3 12 2 24
-4 27 -10 7 -61 -17 -71 -34 -4 -6 -7 4 -7 22 0 18 2 27 5 21 2 -7 12 -13 23
-13z m111 9 c-18 -7 -22 -14 -17 -31 5 -19 4 -20 -5 -6 -14 23 -2 48 24 47 20
0 20 -1 -2 -10z m-347 -39 c3 -5 1 -10 -4 -10 -6 0 -11 5 -11 10 0 6 2 10 4
10 3 0 8 -4 11 -10z m130 -242 c-4 -23 -13 -50 -19 -60 -8 -15 -8 -21 3 -28
26 -15 -25 -21 -159 -18 -123 3 -125 3 -122 26 2 15 -2 22 -13 22 -13 0 -16
-6 -11 -26 7 -25 6 -25 -46 -22 l-53 3 -3 73 -3 72 216 0 217 0 -7 -42z m-551
-4 c19 -18 21 -55 4 -72 -27 -27 -88 0 -88 39 0 23 26 49 50 49 10 0 26 -7 34
-16z m760 0 c33 -32 14 -84 -30 -84 -44 0 -72 58 -42 88 17 17 54 15 72 -4z
m-536 -121 c-10 -2 -28 -2 -40 0 -13 2 -5 4 17 4 22 1 32 -1 23 -4z m230 0
c-38 -2 -98 -2 -135 0 -38 2 -7 3 67 3 74 0 105 -1 68 -3z m117 -83 c42 -4
-45 -7 -220 -7 -159 0 -261 3 -225 7 89 9 359 9 445 0z"/>
<path d="M613 725 c0 -36 4 -55 11 -55 8 0 12 19 12 55 0 36 -4 55 -12 55 -7
0 -11 -19 -11 -55z"/>
<path d="M683 725 c0 -47 2 -55 18 -55 11 0 19 -4 19 -10 0 -5 7 -10 15 -10
23 0 18 16 -11 35 -19 12 -23 20 -15 29 7 9 7 16 0 23 -8 8 -8 13 0 17 11 7
15 -11 12 -46 -1 -10 4 -18 12 -18 10 0 15 10 14 33 -1 25 -7 36 -26 45 -37
18 -38 17 -38 -43z"/>
<path d="M570 665 c0 -8 7 -15 15 -15 8 0 15 7 15 15 0 8 -7 15 -15 15 -8 0
-15 -7 -15 -15z"/>
<path d="M647 673 c-12 -11 -8 -23 8 -23 8 0 15 7 15 15 0 16 -12 20 -23 8z"/>
<path d="M840 658 c-28 -16 -38 -18 -53 -8 -14 8 -22 8 -33 -1 -12 -9 -20 -9
-40 2 -17 9 -28 10 -32 3 -4 -6 -15 -13 -24 -17 -22 -8 -24 -27 -3 -27 8 0 15
5 15 10 0 6 11 10 25 10 14 0 25 -4 25 -10 0 -5 7 -10 15 -10 8 0 15 5 15 10
0 6 9 10 20 10 11 0 20 -4 20 -10 0 -5 7 -10 15 -10 8 0 15 5 15 10 0 6 9 10
20 10 11 0 20 4 20 9 0 5 9 11 21 14 12 3 18 10 14 16 -8 14 -14 13 -55 -11z"/>
<path d="M537 654 c-13 -13 -7 -24 13 -24 11 0 20 -4 20 -10 0 -5 7 -10 15
-10 21 0 19 26 -2 34 -10 3 -23 8 -29 11 -5 3 -13 2 -17 -1z"/>
<path d="M610 646 c0 -9 7 -16 16 -16 9 0 14 5 12 12 -6 18 -28 21 -28 4z"/>
<path d="M865 629 c-10 -15 1 -23 20 -15 9 3 13 10 10 16 -8 13 -22 13 -30 -1z"/>
<path d="M762 275 c0 -16 2 -22 5 -12 2 9 2 23 0 30 -3 6 -5 -1 -5 -18z"/>
<path d="M612 270 c0 -14 2 -19 5 -12 2 6 2 18 0 25 -3 6 -5 1 -5 -13z"/>
<path d="M632 270 c0 -14 2 -19 5 -12 2 6 2 18 0 25 -3 6 -5 1 -5 -13z"/>
<path d="M652 270 c0 -14 2 -19 5 -12 2 6 2 18 0 25 -3 6 -5 1 -5 -13z"/>
<path d="M672 270 c0 -14 2 -19 5 -12 2 6 2 18 0 25 -3 6 -5 1 -5 -13z"/>
<path d="M742 270 c0 -14 2 -19 5 -12 2 6 2 18 0 25 -3 6 -5 1 -5 -13z"/>
<path d="M782 270 c0 -14 2 -19 5 -12 2 6 2 18 0 25 -3 6 -5 1 -5 -13z"/>
<path d="M591 264 c0 -11 3 -14 6 -6 3 7 2 16 -1 19 -3 4 -6 -2 -5 -13z"/>
<path d="M721 264 c0 -11 3 -14 6 -6 3 7 2 16 -1 19 -3 4 -6 -2 -5 -13z"/>
<path d="M801 264 c0 -11 3 -14 6 -6 3 7 2 16 -1 19 -3 4 -6 -2 -5 -13z"/>
</g>
</svg>
